D:\school\WTK\thesis\model\3dpredictsim\Results\batch_windlass\Pog_s1_tmt_aCst_d05_k800_WL20_ig24_act_TTC_GRF.mot
nRows=10
nColumns=19

name D:\school\WTK\thesis\model\3dpredictsim\Results\batch_windlass\Pog_s1_tmt_aCst_d05_k800_WL20_ig24_act_TTC_GRF.mot
datacolumns 19
datarows 10
range 0.0000000000 0.1100660237
endheader
time 	ground_force_vx	ground_force_vy	ground_force_vz	ground_force_px	ground_force_py	ground_force_pz	1_ground_force_vx	1_ground_force_vy	1_ground_force_vz	1_ground_force_px	1_ground_force_py	1_ground_force_pz	ground_torque_x	ground_torque_y	ground_torque_z	1_ground_torque_x	1_ground_torque_y	1_ground_torque_z
        0.0000000000	      -80.7128365580	       62.1420883846	       12.0810787284	        0.1624115323	        0.0000000000	        0.0608669222	       85.4998850745	      357.4061230051	       -2.8850232268	       -0.3781147990	        0.0000000000	       -0.0337662499	        0.0000000000	        0.0000000000	        0.0000000000	        0.0000000000	        0.0000000000	        0.0000000000	
        0.0122295582	     -162.3726145566	      163.1014756232	       31.0304043907	        0.1753700911	        0.0000000000	        0.0604446332	       51.6088781688	      254.9602010407	      -11.3778604003	       -0.3666563172	        0.0000000000	       -0.0292552728	        0.0000000000	        0.0000000000	        0.0000000000	        0.0000000000	        0.0000000000	        0.0000000000	
        0.0244591164	      -99.5554028460	      456.1437887225	       -2.1653512674	        0.1936360270	        0.0000000000	        0.0619707970	       37.1585791900	      208.2811968627	      -16.7316644811	       -0.3625880963	        0.0000000000	       -0.0275287196	        0.0000000000	        0.0000000000	        0.0000000000	        0.0000000000	        0.0000000000	        0.0000000000	
        0.0366886746	     -118.0839914797	      744.5603011444	      -23.6480062225	        0.2031635720	        0.0000000000	        0.0629542339	       34.7432067922	      164.8298704968	      -14.5764821711	       -0.3622894723	        0.0000000000	       -0.0274579440	        0.0000000000	        0.0000000000	        0.0000000000	        0.0000000000	        0.0000000000	        0.0000000000	
        0.0489182328	     -158.9756256233	      902.5745594590	      -28.9033057530	        0.2135114049	        0.0000000000	        0.0624498609	       22.7179956585	      107.9472047507	      -14.2986622845	       -0.3622876910	        0.0000000000	       -0.0277105350	        0.0000000000	        0.0000000000	        0.0000000000	        0.0000000000	        0.0000000000	        0.0000000000	
        0.0611477910	     -172.4231345213	      949.9185877079	      -28.1640195409	        0.2247370571	        0.0000000000	        0.0610426383	        0.3419924717	       43.5607992038	       -8.8677299000	       -0.3639064535	        0.0000000000	       -0.0279570294	        0.0000000000	        0.0000000000	        0.0000000000	        0.0000000000	        0.0000000000	        0.0000000000	
        0.0733773492	     -154.9790828665	      887.4449538403	      -23.6559257667	        0.2316257373	        0.0000000000	        0.0598888880	       -1.0490757533	        1.0364562112	        0.0427334009	        0.0000000000	        0.0000000000	        0.0000000000	        0.0000000000	        0.0000000000	        0.0000000000	        0.0000000000	        0.0000000000	        0.0000000000	
        0.0856069074	     -131.1568459804	      794.9174677230	      -19.1956328343	        0.2359386115	        0.0000000000	        0.0592059162	       -2.5018183791	        2.0191946999	        0.2737351120	        0.0000000000	        0.0000000000	        0.0000000000	        0.0000000000	        0.0000000000	        0.0000000000	        0.0000000000	        0.0000000000	        0.0000000000	
        0.0978364656	     -113.8183457131	      735.0003873140	      -16.0817434491	        0.2399247164	        0.0000000000	        0.0587580706	       -0.7183365039	        0.5220727021	        0.0687544716	        0.0000000000	        0.0000000000	        0.0000000000	        0.0000000000	        0.0000000000	        0.0000000000	        0.0000000000	        0.0000000000	        0.0000000000	
        0.1100660237	     -100.8676534052	      705.2201711149	      -15.6371219775	        0.2432714798	        0.0000000000	        0.0584340707	        0.1622571830	       -0.1127322747	       -0.0105094663	        0.0000000000	        0.0000000000	        0.0000000000	        0.0000000000	        0.0000000000	        0.0000000000	        0.0000000000	        0.0000000000	        0.0000000000	
